<?xml version="1.0" encoding="UTF-8" standalone="no"?>
<!-- Generator: Adobe Illustrator 24.2.3, SVG Export Plug-In . SVG Version: 6.00 Build 0)  -->

<svg
   xmlns:dc="http://purl.org/dc/elements/1.1/"
   xmlns:cc="http://creativecommons.org/ns#"
   xmlns:rdf="http://www.w3.org/1999/02/22-rdf-syntax-ns#"
   xmlns:svg="http://www.w3.org/2000/svg"
   xmlns="http://www.w3.org/2000/svg"
   xmlns:sodipodi="http://sodipodi.sourceforge.net/DTD/sodipodi-0.dtd"
   xmlns:inkscape="http://www.inkscape.org/namespaces/inkscape"
   version="1.1"
   id="svg8"
   x="0px"
   y="0px"
   viewBox="0 0 1412.9579 833.00001"
   xml:space="preserve"
   inkscape:version="0.91 r13725"
   sodipodi:docname="frog-colour.svg"
   width="1412.9579"
   height="833"><metadata
     id="metadata9564"><rdf:RDF><cc:Work
         rdf:about=""><dc:format>image/svg+xml</dc:format><dc:type
           rdf:resource="http://purl.org/dc/dcmitype/StillImage" /><dc:title></dc:title><dc:description>colour remix by j4p4n</dc:description><cc:license
           rdf:resource="http://creativecommons.org/publicdomain/zero/1.0/" /></cc:Work><cc:License
         rdf:about="http://creativecommons.org/publicdomain/zero/1.0/"><cc:permits
           rdf:resource="http://creativecommons.org/ns#Reproduction" /><cc:permits
           rdf:resource="http://creativecommons.org/ns#Distribution" /><cc:permits
           rdf:resource="http://creativecommons.org/ns#DerivativeWorks" /></cc:License></rdf:RDF></metadata><defs
     id="defs9562" /><style
     type="text/css"
     id="style9556">
	.st0{fill:#231F20;}
</style><sodipodi:namedview
     bordercolor="#666666"
     borderopacity="1.0"
     id="base"
     inkscape:current-layer="g1550"
     inkscape:cx="346.08022"
     inkscape:cy="215.59804"
     inkscape:document-rotation="0"
     inkscape:document-units="mm"
     inkscape:pageopacity="0.0"
     inkscape:pageshadow="2"
     inkscape:window-height="1035"
     inkscape:window-maximized="1"
     inkscape:window-width="1916"
     inkscape:window-x="4"
     inkscape:window-y="1"
     inkscape:zoom="0.54565796"
     pagecolor="#ffffff"
     showgrid="false"
     fit-margin-top="0"
     fit-margin-left="0"
     fit-margin-right="0"
     fit-margin-bottom="0" /><g
     id="layer1"
     transform="translate(1125.4812,436.89504)"
     inkscape:groupmode="layer"
     inkscape:label="Layer 1"><g
       id="g1550"><g
         id="g10144"
         transform="matrix(1.2951001,0,0,1.4091619,-162.90303,-164.00176)"><ellipse
           ry="37.49762"
           rx="47.478344"
           cy="-131.31831"
           cx="-403.4892"
           id="path10114"
           style="opacity:1;fill:#f9f9f9;fill-opacity:1;fill-rule:evenodd;stroke:#000000;stroke-width:2.9485743;stroke-linecap:round;stroke-linejoin:round;stroke-miterlimit:4;stroke-dasharray:none;stroke-opacity:1" /><path
           style="fill:#ffffff;fill-opacity:1;fill-rule:evenodd;stroke:#000000;stroke-width:2.83464575;stroke-linecap:butt;stroke-linejoin:miter;stroke-miterlimit:4;stroke-dasharray:none;stroke-opacity:1"
           d="m -451.40253,73.723375 34.98874,-7.177175 c 51.33884,9.642971 98.30659,-4.255793 137.26351,-22.428676 3.95555,2.3336 15.01034,-1.131897 12.56006,16.148646 -34.2845,37.48208 -93.70528,40.16009 -158.79504,34.988736 z"
           id="path10108"
           inkscape:connector-curvature="0"
           sodipodi:nodetypes="cccccc" /><ellipse
           style="opacity:1;fill:#f9f9f9;fill-opacity:1;fill-rule:evenodd;stroke:#000000;stroke-width:2.9485743;stroke-linecap:round;stroke-linejoin:round;stroke-miterlimit:4;stroke-dasharray:none;stroke-opacity:1"
           id="ellipse10116"
           cx="-245.82761"
           cy="-112.71019"
           rx="47.478344"
           ry="37.49762" /><ellipse
           ry="37.49762"
           rx="47.478344"
           cy="-108.65023"
           cx="-408.2258"
           id="ellipse10118"
           style="opacity:1;fill:#c5ae58;fill-opacity:1;fill-rule:evenodd;stroke:#000000;stroke-width:2.9485743;stroke-linecap:round;stroke-linejoin:round;stroke-miterlimit:4;stroke-dasharray:none;stroke-opacity:1" /><ellipse
           style="opacity:1;fill:#c5ae58;fill-opacity:1;fill-rule:evenodd;stroke:#000000;stroke-width:2.9485743;stroke-linecap:round;stroke-linejoin:round;stroke-miterlimit:4;stroke-dasharray:none;stroke-opacity:1"
           id="ellipse10120"
           cx="-254.28584"
           cy="-94.778717"
           rx="47.478344"
           ry="37.49762" /><path
           sodipodi:nodetypes="ccccccscscccsccsccccccccsccccccccccccccsccsccccsccccccssccccsccccccccsccccccccccccscccscccsccccccsccccccccccccsccscccccssccccccccccccccccccccccscscccscsccsscccsssscccccc"
           inkscape:connector-curvature="0"
           style="fill:#00800f;fill-opacity:1;stroke:#000000;stroke-width:3.01816297;stroke-miterlimit:4;stroke-dasharray:none;stroke-opacity:1"
           d="M 202.86236,384.04652 C 194.39967,361.9268 165.8773,304.82707 149.57881,277.56325 133.59374,250.81383 112.90718,223.29279 94.101224,203.74513 l -8.776115,-9.25941 -37.611915,-0.77162 c -43.5671343,-0.77162 -63.940257,-4.62971 -104.686501,-19.29045 -13.477603,-4.88692 -24.761179,-8.48779 -25.388044,-7.97338 -2.194029,1.80044 11.597007,16.20398 20.373123,21.09089 14.731333,8.23059 25.074611,10.80264 43.88057,10.80264 l 17.55222753,0 19.43282547,14.14633 c 46.38803,33.95119 68.014883,60.70061 109.701425,136.31918 14.4179,26.23499 16.61193,32.66515 11.59701,32.66515 -3.13433,0 -24.44775,-13.1175 -32.28357,-20.06206 -7.52237,-6.43016 -8.776115,-6.17295 -10.343269,2.31485 -1.567169,8.23059 -7.522389,15.94676 -11.910439,15.94676 -1.567169,0 -5.95522,-5.40132 -9.716414,-11.83146 l -6.582091,-11.83148 -5.328348,7.45898 c -2.820896,4.11528 -8.149245,11.05984 -11.597012,15.17514 -5.955219,6.94457 -6.58209,7.45898 -9.402986,4.1153 -3.134324,-3.60089 -4.074622,-7.97339 -7.835802,-45.78266 L 32.981859,314.6009 17.623668,292.9956 C 9.1609806,281.16414 -4.9434867,263.93132 -13.719601,254.67192 -22.495715,245.4125 -30.331532,237.1819 -30.958396,236.41029 -31.585263,235.38147 -44.436,232.80941 -59.167335,230.23734 -134.07774,217.63425 -178.89861,188.31277 -193.31651,142.0157 c -2.19403,-6.68736 -4.07462,-9.25942 -6.26865,-8.4878 -10.02985,3.08648 -50.46266,5.14411 -82.74622,4.3725 -76.16413,-2.31485 -114.40292,-14.66074 -154.20886,-50.155166 l -15.98507,-14.146317 -31.6567,-1.286036 c -38.23878,-1.543241 -59.86564,-5.144118 -78.98502,-12.860294 -47.9552,-19.290448 -72.71638,-72.274883 -51.08953,-109.312544 9.40299,-16.461182 42.62684,-42.953397 66.13429,-52.470013 22.56715,-9.25942 41.99998,-14.91795 61.43281,-18.26163 l 15.04476,-2.57206 2.8209,-11.83147 c 8.14924,-33.17957 31.34327,-54.52767 58.92534,-54.52767 6.89552,0 15.98506,1.28603 20.05968,2.57206 20.68656,7.20177 38.55222,28.29266 44.19401,51.44119 2.82089,11.31707 2.82089,11.31707 11.28357,11.31707 4.70149,0 12.53731,0.51441 17.2388,1.28603 8.46267,1.28603 8.77611,1.02882 11.28357,-7.20177 5.32836,-16.46118 19.43283,-31.63634 35.41789,-38.5809 11.91044,-4.88691 32.28356,-4.88691 44.194,0 20.37313,8.4878 37.92535,32.66516 37.92535,51.95561 l 0,9.25942 18.1791,3.08647 c 10.02984,1.80044 30.40296,6.172941 45.44773,9.516617 l 27.268642,6.43015 12.850738,-7.973385 c 34.791025,-21.348092 39.179081,-27.778242 30.089535,-43.725012 -5.328355,-9.77383 -6.268654,-19.54766 -1.567164,-22.63413 4.70149,-3.08647 13.791037,3.34368 21.626854,14.91795 l 6.268652,9.25941 19.1193909,-9.51662 c 10.6567036,-5.14412 21.6268591,-10.03103 24.4477401,-10.54544 18.805973,-3.85809 15.044778,15.43236 -4.38805,20.83368 -3.7611947,1.02882 -6.8955183,3.08647 -6.8955183,4.62971 0,3.34368 1.5671694,3.34368 14.7313353,-0.25721 5.955219,-1.54323 13.791036,-2.82926 17.552231,-2.31485 5.641792,0.51441 6.582075,1.54323 7.208946,6.68735 0.940298,6.68736 -3.447752,9.77383 -17.238788,12.34589 -7.835817,1.54324 -6.268663,2.31485 10.029842,5.65853 11.597011,2.57206 16.298489,7.71618 12.223867,13.889124 -2.507453,3.85809 -3.761195,4.115296 -23.507451,2.829267 -11.596996,-0.77162 -27.5820682,-0.514414 -36.671615,0.771617 -17.238795,2.314853 -40.746244,10.288238 -40.746244,14.146328 0,1.286031 10.029845,6.43015 22.56715,11.574269 29.14923653,12.088681 75.850707,40.89575 88.074574,54.27046 5.328349,5.658536 11.597011,15.4323623 14.417907,21.6052979 5.641777,13.1175121 6.895518,36.5232461 2.507453,47.3259041 -4.074622,9.773826 -16.92536,20.062062 -34.164148,27.006625 -8.14926,3.343686 -14.731335,6.172949 -15.358206,6.430153 -1.253726,1.028818 16.611932,36.266045 21.313426,42.438975 6.582075,8.2306 17.552215,15.68957 31.029824,21.60531 9.402986,3.85809 16.298504,5.40133 33.850717,6.17294 20.68656,1.02882 22.25373,1.54325 27.58208,6.94457 13.79103,14.14633 63.3134,66.10193 87.44771,91.82253 14.41791,15.43235 33.85073,33.95119 42.62685,40.63854 9.08954,6.94457 16.29849,14.14633 16.29849,15.94677 0,3.08648 -1.56716,3.34368 -16.92536,2.31485 -9.40299,-0.77161 -19.43283,-1.80043 -22.56715,-2.57206 -5.32835,-1.28602 -5.32835,-0.77161 3.13432,11.57427 6.26866,9.25942 8.77612,15.17515 8.77612,21.60531 0,4.88691 -0.62688,9.25941 -1.56716,10.03103 -0.9403,0.77161 -9.08956,-2.05765 -17.86567,-5.91573 l -16.29849,-7.20177 0,19.54765 c 0,21.09089 -3.7612,30.86472 -11.28359,30.86472 -3.13432,0.51441 -5.64177,-2.31485 -8.46267,-10.54545 z M -363.82387,90.060088 c -0.62686,-2.314854 -2.19403,-7.716176 -3.13433,-12.088681 -1.8806,-7.458972 -2.19402,-7.716176 -12.85074,-8.230585 -10.97014,-0.514409 -10.97014,-0.514409 -10.97014,5.401322 0,3.343686 1.56717,9.002213 3.44777,12.60309 3.13432,6.172949 4.07462,6.687358 14.10446,6.687358 9.71642,-0.257204 10.34327,-0.514409 9.40298,-4.372504 z m -32.91043,-2.05765 c -0.62687,-2.31484 -1.56717,-7.458972 -2.50746,-11.317053 -1.25373,-6.17295 -2.19403,-7.201768 -9.7164,-8.230599 -10.34329,-1.543227 -11.28359,-1.028818 -9.40299,6.172949 2.50747,9.773826 10.02984,18.004412 16.61193,18.004412 5.01492,-0.257205 5.95522,-1.028818 5.01492,-4.629709 z m 61.11937,0.771627 c 1.8806,-0.771627 1.25373,-4.115299 -2.19403,-11.317067 -4.38806,-9.516621 -5.32836,-10.03103 -12.53731,-10.03103 -4.38805,0 -8.46268,0.771613 -9.08954,2.057649 -0.9403,1.028818 0.31343,6.687359 2.19403,12.60309 3.76119,10.54544 3.76119,10.802658 11.28358,9.516622 4.38805,-1.028818 9.08954,-2.05765 10.34327,-2.829264 z m 26.9552,-7.201767 c 0,-0.514409 -2.19402,-5.144118 -5.01492,-10.545454 -3.44775,-6.687344 -5.95522,-9.259403 -8.46267,-8.487789 -1.8806,0.514409 -4.7015,1.028818 -6.58209,1.028818 -2.50747,0 -2.50747,1.54324 0.31343,9.259417 1.88059,5.144117 4.07462,10.288235 4.38806,11.574271 0.62686,1.800446 2.50745,1.800446 8.14925,0.257205 4.07462,-1.286023 7.20894,-2.829263 7.20894,-3.086468 z m 20.0597,-6.687358 7.83581,-3.858096 -4.70149,-9.516621 -4.70149,-9.516608 -8.46268,3.086468 c -4.70149,1.800445 -8.77611,3.343672 -9.08955,3.343672 -0.9403,0.257204 9.71642,20.062075 10.65672,20.062075 0.31343,0.257205 4.07462,-1.286036 8.46268,-3.60089 z m 19.43282,-20.319266 c -0.62686,-4.372505 -2.19403,-5.658541 -7.52238,-6.17295 l -6.58209,-0.514409 5.32836,7.973381 c 5.95522,8.230599 10.02984,7.716177 8.77611,-1.286022 z m 59.23877,-170.013154 c 0,-7.45897 -9.08955,-19.80486 -18.49252,-24.94898 -5.95523,-3.34368 -11.28358,-4.3725 -21.31343,-4.3725 -16.29849,0 -26.64177,4.88691 -34.47759,16.46118 l -5.32835,7.71618 5.32835,1.28603 c 35.93177,3.0626 63.05789,8.90048 69.89548,9.00221 3.13433,0 4.38806,-1.02882 4.38806,-5.14412 z m -157.34319,-10.03103 c 3.44776,0 2.50746,-4.1153 -2.82089,-13.63192 -8.77612,-15.94677 -20.68656,-23.14854 -37.92534,-23.14854 -16.29851,0 -25.38805,6.17295 -34.79104,23.40575 -6.58207,12.08868 -6.26865,13.1175 5.64179,13.1175 38.68053,0.52053 43.85164,-0.73878 69.89548,0.25721 z m -218.77598,22.11971 c -8.77612,-8.745 -40.74626,-14.14633 -47.0149,-7.97338 -1.56717,1.54323 -4.38805,2.82926 -5.95522,2.82926 -1.56717,0 -5.95522,1.28603 -9.71642,2.82927 -9.40297,4.11529 -16.61193,3.60088 -19.74625,-1.02883 -2.8209,-4.3725 0.62687,-10.54544 9.71641,-17.74721 6.26865,-4.88691 5.32835,-7.20177 -2.50747,-7.20177 -12.85074,0 -16.29849,-10.28824 -5.01492,-14.91794 3.13433,-1.28603 9.71642,-2.57206 14.41791,-2.57206 12.85074,0 23.19401,-2.05765 23.19401,-4.88692 0,-1.28603 -2.19403,-4.3725 -4.70148,-6.68735 -6.26866,-5.91574 -5.95522,-9.00221 0.9403,-12.60309 5.01492,-2.57206 6.58207,-2.82927 13.47759,-0.25721 4.38807,1.54324 10.34329,5.14412 13.47761,7.71618 7.52239,6.68735 12.22387,6.43015 18.49253,-0.77162 9.40297,-10.28824 30.08952,-6.68735 22.56715,3.85809 -7.52239,10.80265 -10.65671,17.49001 -10.65671,24.43457 0,6.43015 1.56715,8.23059 10.65671,14.66074 5.95522,4.11529 22.43987,18.43588 22.43987,18.43588 -11.09171,4.24327 -18.43302,7.599578 -27.81874,14.131372 z"
           class="st0"
           id="path847" /><path
           sodipodi:nodetypes="cccccc"
           inkscape:connector-curvature="0"
           id="path10106"
           d="m -451.40253,73.723375 34.98874,-7.177175 c 51.33884,9.642971 98.30659,-4.255793 137.26351,-22.428676 3.95555,2.3336 15.01034,-1.131897 12.56006,16.148646 -34.2845,37.48208 -93.70528,40.16009 -158.79504,34.988736 z"
           style="fill:#4a432c;fill-opacity:1;fill-rule:evenodd;stroke:#000000;stroke-width:2.83464575;stroke-linecap:butt;stroke-linejoin:miter;stroke-miterlimit:4;stroke-dasharray:none;stroke-opacity:1" /><path
           sodipodi:nodetypes="ccccc"
           inkscape:connector-curvature="0"
           id="path10122"
           d="M -82.369918,166.19148 C -105.06692,135.63992 -102.74603,115.77525 -103.8563,79.13642 -64.748997,-84.726666 44.593373,10.827348 19.108967,68.25454 l 3.264565,10.88188 3.328576,9.38829"
           style="fill:none;fill-rule:evenodd;stroke:#000000;stroke-width:2.83464575;stroke-linecap:butt;stroke-linejoin:miter;stroke-miterlimit:4;stroke-dasharray:none;stroke-opacity:1" /><path
           sodipodi:nodetypes="cc"
           inkscape:connector-curvature="0"
           id="path10124"
           d="m -198.55001,133.26845 c 32.64692,0.6646 66.33985,-1.87632 96.27265,-12.97291"
           style="fill:none;fill-rule:evenodd;stroke:#000000;stroke-width:2.83464575;stroke-linecap:butt;stroke-linejoin:miter;stroke-miterlimit:4;stroke-dasharray:none;stroke-opacity:1" /><path
           sodipodi:nodetypes="ccccc"
           inkscape:connector-curvature="0"
           id="path10126"
           d="m -417.91225,67.139525 c -2.02524,8.842085 5.02693,21.964784 11.12096,27.684075 4.47275,2.325266 7.90355,3.251511 11.12096,1.18308 0.31235,-6.600003 -3.14429,-19.542248 -6.61652,-27.403778 z"
           style="fill:#e6e6e6;fill-opacity:1;fill-rule:evenodd;stroke:#000000;stroke-width:1.77165353;stroke-linecap:butt;stroke-linejoin:miter;stroke-miterlimit:4;stroke-dasharray:none;stroke-opacity:1" /><path
           sodipodi:nodetypes="ccccc"
           inkscape:connector-curvature="0"
           id="path10128"
           d="m -388.33524,70.452149 c -5.80808,2.457639 3.61511,27.253529 7.57171,26.264379 6.62151,0.616016 12.93015,1.163638 18.92928,-0.709848 l -8.28155,-26.027763 z"
           style="fill:#e6e6e6;fill-opacity:1;fill-rule:evenodd;stroke:#000000;stroke-width:1.77165353;stroke-linecap:butt;stroke-linejoin:miter;stroke-miterlimit:4;stroke-dasharray:none;stroke-opacity:1" /><path
           sodipodi:nodetypes="ccccc"
           inkscape:connector-curvature="0"
           id="path10130"
           d="m -359.46808,69.742301 c -0.0147,8.907555 0.60516,19.638927 9.22802,24.844683 4.76144,0.531045 9.53119,1.028157 14.90682,-0.946464 2.91373,-5.981882 -4.73649,-19.127158 -8.7548,-26.26438 z"
           style="fill:#e6e6e6;fill-opacity:1;fill-rule:evenodd;stroke:#000000;stroke-width:1.77165353;stroke-linecap:butt;stroke-linejoin:miter;stroke-miterlimit:4;stroke-dasharray:none;stroke-opacity:1" /><path
           sodipodi:nodetypes="ccccc"
           inkscape:connector-curvature="0"
           id="path10132"
           d="m -331.07416,63.590288 c 1.49703,9.559902 5.3025,18.196425 9.93787,26.500992 l 15.14343,-3.549242 c -3.47158,-9.096168 -8.36463,-17.718511 -15.61666,-25.55453 z"
           style="fill:#e6e6e6;fill-opacity:1;fill-rule:evenodd;stroke:#000000;stroke-width:1.77165353;stroke-linecap:butt;stroke-linejoin:miter;stroke-miterlimit:4;stroke-dasharray:none;stroke-opacity:1" /><path
           sodipodi:nodetypes="ccccc"
           inkscape:connector-curvature="0"
           id="path10134"
           d="m -308.83225,56.491802 c 0.89907,8.985113 6.06029,17.117797 13.25049,24.844684 l 14.6702,-7.808329 c -1.84043,-7.729456 -4.34895,-15.458911 -9.93788,-23.188367 z"
           style="fill:#e6e6e6;fill-opacity:1;fill-rule:evenodd;stroke:#000000;stroke-width:1.77165353;stroke-linecap:butt;stroke-linejoin:miter;stroke-miterlimit:4;stroke-dasharray:none;stroke-opacity:1" /><path
           sodipodi:nodetypes="ccccccc"
           inkscape:connector-curvature="0"
           id="path10136"
           d="m -283.27772,47.50039 c 3.02843,6.497017 5.49908,13.472132 12.77726,16.32651 l 3.78586,-3.31262 -0.70985,-11.59419 -7.3351,-4.02247 -6.86186,0 z"
           style="fill:#e6e6e6;fill-opacity:1;fill-rule:evenodd;stroke:#000000;stroke-width:1.77165353;stroke-linecap:butt;stroke-linejoin:miter;stroke-miterlimit:4;stroke-dasharray:none;stroke-opacity:1" /><path
           style="fill:none;fill-opacity:1;fill-rule:evenodd;stroke:#000000;stroke-width:2.83464575;stroke-linecap:round;stroke-linejoin:round;stroke-miterlimit:4;stroke-dasharray:none;stroke-opacity:1"
           d="m -451.40253,73.723375 34.98874,-7.177175 c 51.33884,9.642971 98.30659,-4.255793 137.26351,-22.428676 3.95555,2.3336 15.01034,-1.131897 12.56006,16.148646 -34.2845,37.48208 -93.70528,40.16009 -158.79504,34.988736 z"
           id="path10138"
           inkscape:connector-curvature="0"
           sodipodi:nodetypes="cccccc" /><path
           sodipodi:nodetypes="ccccc"
           inkscape:connector-curvature="0"
           id="path10140"
           d="m -432.12364,69.703239 c 6.5943,8.355591 12.3097,16.711183 12.30551,25.066774 l -9.11519,0 -23.01586,-20.281299 z"
           style="fill:#e6e6e6;fill-opacity:1;fill-rule:evenodd;stroke:#000000;stroke-width:1.77165353;stroke-linecap:butt;stroke-linejoin:miter;stroke-miterlimit:4;stroke-dasharray:none;stroke-opacity:1" /><path
           sodipodi:nodetypes="cccc"
           inkscape:connector-curvature="0"
           id="path10142"
           d="m -97.02613,-88.52204 -61.75555,54.397443 c -26.78198,40.2417741 -44.64124,71.881797 24.43943,19.70922 l 82.51593,-66.222973"
           style="fill:none;fill-rule:evenodd;stroke:#000000;stroke-width:2.83464575;stroke-linecap:round;stroke-linejoin:round;stroke-miterlimit:4;stroke-dasharray:none;stroke-opacity:1" /></g></g></g></svg>